<?xml version="1.0" standalone="no"?>
<!DOCTYPE svg PUBLIC "-//W3C//DTD SVG 20010904//EN"
 "http://www.w3.org/TR/2001/REC-SVG-20010904/DTD/svg10.dtd">
<svg version="1.0" xmlns="http://www.w3.org/2000/svg"
 width="300.000000pt" height="279.000000pt" viewBox="0 0 300.000000 279.000000"
 preserveAspectRatio="xMidYMid meet">
<metadata>
Created by potrace 1.10, written by Peter Selinger 2001-2011
</metadata>
<g transform="translate(0.000000,279.000000) scale(0.100000,-0.100000)"
fill="#000000" stroke="none">
<path d="M671 2594 l-31 -26 0 -614 0 -614 -84 0 -83 0 -6 30 c-9 42 -50 60
-137 60 -74 0 -123 -16 -134 -45 -3 -9 -6 -149 -6 -311 l0 -295 25 -24 c22
-23 32 -25 113 -25 75 0 93 3 116 21 14 11 26 27 26 35 0 19 15 18 91 -7 49
-16 156 -66 176 -83 2 -2 -4 -21 -13 -44 -38 -94 31 -192 135 -192 22 0 34 -8
49 -34 27 -46 65 -69 116 -70 36 -1 44 -5 56 -31 21 -42 75 -75 121 -75 26 0
39 -4 39 -14 0 -26 42 -66 80 -76 52 -14 98 5 136 56 15 22 31 43 35 48 4 5
27 -7 51 -27 65 -53 110 -77 143 -77 45 0 94 35 113 80 12 27 23 40 37 40 50
0 115 68 115 120 0 15 6 20 29 20 70 0 136 82 127 157 -5 35 -2 43 14 48 52
17 94 112 71 162 -7 14 -10 27 -8 30 3 2 42 12 87 21 67 14 84 14 88 4 2 -7
15 -26 29 -42 24 -29 27 -30 116 -30 57 1 98 5 108 13 36 28 39 51 39 342 l0
287 -29 29 c-28 28 -34 29 -116 29 -82 0 -88 -1 -116 -29 -16 -16 -29 -37 -29
-45 0 -13 -14 -16 -80 -15 l-80 1 0 444 c0 359 -3 451 -14 477 -18 41 -272
293 -309 307 -19 6 -226 10 -602 10 l-573 0 -31 -26z m1228 -50 c32 -27 40
-44 19 -44 -6 0 -20 -7 -30 -17 -17 -15 -18 -15 -18 11 0 15 -7 38 -16 51 -14
22 -15 25 -1 25 9 0 29 -12 46 -26z m-69 -124 c0 -115 1 -122 25 -145 23 -24
30 -25 145 -25 l120 0 0 -434 0 -435 -115 0 -115 -1 -162 81 c-190 95 -235
105 -314 68 -44 -20 -65 -23 -194 -24 -137 -1 -149 -2 -222 -31 -42 -17 -107
-52 -144 -78 -37 -27 -83 -50 -101 -53 l-33 -6 0 602 0 601 555 0 555 0 0
-120z m192 -55 l42 -35 -77 0 -77 0 0 77 0 77 35 -42 c20 -23 54 -57 77 -77z
m102 -46 c14 -17 26 -37 26 -46 0 -14 -3 -13 -25 1 -13 9 -34 16 -45 16 -14 0
-20 5 -16 13 3 6 9 20 12 30 9 24 18 21 48 -14z m-413 -939 l162 -81 244 3
243 3 0 -186 0 -186 -60 -6 c-33 -4 -87 -16 -120 -27 l-60 -20 -294 205 c-230
160 -300 205 -325 205 -26 0 -51 -19 -154 -115 -102 -96 -127 -114 -154 -115
-35 0 -63 29 -63 65 0 26 271 312 315 331 48 22 94 9 266 -76z m-351 73 c0 -4
-10 -17 -22 -30 -20 -21 -22 -21 -34 -5 -23 29 -16 42 21 42 19 0 35 -3 35 -7z
m-80 -30 c0 -4 -47 -55 -104 -113 -58 -58 -110 -118 -115 -134 -38 -99 29
-198 135 -198 56 0 64 6 199 130 64 60 113 98 120 94 97 -59 596 -418 600
-432 3 -11 1 -30 -6 -42 -28 -54 -57 -50 -152 18 -79 57 -101 62 -121 31 -16
-25 -1 -43 94 -112 46 -33 88 -70 93 -83 22 -50 -36 -99 -86 -73 -12 6 -62 40
-110 76 -49 36 -93 65 -97 65 -16 0 -41 -32 -38 -48 2 -9 41 -45 88 -82 70
-54 86 -72 88 -97 4 -36 -19 -63 -54 -63 -14 0 -49 18 -79 40 -60 44 -89 50
-105 20 -14 -26 -5 -40 50 -82 51 -38 59 -58 34 -83 -22 -22 -37 -17 -110 36
l-61 44 5 55 c4 49 1 59 -23 88 -14 17 -44 37 -66 43 -24 8 -39 18 -39 28 0
49 -70 111 -125 111 -16 0 -25 6 -25 16 0 32 -33 84 -67 105 -27 17 -45 20
-89 17 -47 -4 -57 -2 -65 14 -17 32 -71 58 -118 58 -54 0 -101 -28 -126 -73
l-18 -34 -71 38 c-39 21 -109 49 -156 62 l-85 25 -3 185 -2 186 169 3 169 3
68 47 c81 55 165 95 226 107 53 11 178 13 178 4z m885 -71 c-34 -4 -42 3 -25
23 12 14 15 14 33 -2 19 -18 19 -18 -8 -21z m405 -232 l0 -270 -65 0 -65 0 0
270 0 270 65 0 65 0 0 -270z m-170 223 c0 -36 0 -36 -20 -18 -19 17 -19 19 -4
37 23 24 24 24 24 -19z m-2010 -265 l0 -268 -60 0 -60 0 0 268 0 267 60 0 60
0 0 -267z m314 247 c6 -18 -16 -30 -39 -21 -20 7 -8 36 15 36 10 0 21 -7 24
-15z m-238 -10 c7 -18 -14 -47 -27 -39 -5 3 -9 16 -9 30 0 27 27 34 36 9z
m1934 -425 c0 -28 -2 -30 -20 -20 -23 12 -25 21 -8 38 20 20 28 14 28 -18z
m-1934 -35 c6 -16 -12 -45 -27 -45 -10 0 -12 44 -2 53 11 11 23 8 29 -8z
m1686 -37 c-11 -11 -32 -3 -32 12 0 12 34 18 39 7 2 -5 -1 -13 -7 -19z m-1178
-44 c25 -24 19 -61 -21 -128 -48 -80 -72 -106 -99 -106 -22 0 -64 42 -64 63 0
13 76 144 98 170 19 21 65 22 86 1z m93 -37 c-2 -7 -11 -13 -20 -15 -12 -3
-17 4 -17 23 0 23 2 25 21 15 11 -6 18 -17 16 -23z m-267 -26 c-9 -18 -30 -29
-30 -17 0 2 -3 11 -6 19 -4 11 2 17 18 19 30 5 32 3 18 -21z m372 -8 c29 -26
22 -56 -42 -161 -62 -103 -84 -121 -124 -100 -48 25 -47 53 5 142 65 111 87
136 116 136 15 0 35 -7 45 -17z m69 -94 c-30 -25 -34 -21 -19 19 11 29 14 30
28 16 13 -14 13 -17 -9 -35z m834 21 c-14 -15 -21 -17 -32 -9 -22 19 -15 29
19 29 30 0 31 0 13 -20z m-746 -77 c14 -17 19 -33 15 -46 -14 -43 -96 -166
-115 -172 -50 -16 -99 27 -82 72 11 30 85 147 102 161 24 20 58 14 80 -15z
m-399 -48 c0 -27 -12 -32 -29 -12 -8 10 -7 17 1 25 19 19 28 14 28 -13z m479
-21 c-16 -19 -29 -17 -29 4 0 26 11 34 27 21 10 -9 10 -15 2 -25z m525 -17
c17 -12 17 -14 1 -27 -14 -12 -18 -12 -26 1 -21 34 -7 49 25 26z m-483 -27
c10 -6 19 -19 19 -30 0 -25 -86 -166 -105 -174 -22 -8 -43 3 -50 25 -10 29 86
189 113 189 2 0 12 -5 23 -10z m-341 -39 c0 -27 -15 -34 -31 -15 -10 13 -10
17 2 25 22 13 29 11 29 -10z m398 -73 c18 -18 15 -25 -17 -30 -27 -4 -28 -3
-18 19 12 26 18 28 35 11z m281 -7 c7 -5 10 -14 7 -20 -11 -18 -33 -13 -39 9
-5 21 8 26 32 11z m-513 -27 c-3 -9 -6 -21 -6 -27 0 -6 -8 -3 -17 6 -16 16
-16 19 -3 27 22 14 33 12 26 -6z"/>
<path d="M973 2431 c-3 -12 -23 -29 -47 -39 -132 -59 -164 -225 -61 -327 23
-24 56 -46 74 -50 l31 -7 0 -124 c0 -68 -4 -124 -9 -124 -18 0 -69 69 -75 103
-8 42 -28 61 -55 52 -27 -8 -34 -36 -22 -83 17 -62 52 -105 107 -132 28 -14
55 -34 60 -45 14 -30 51 -32 65 -2 6 13 25 29 43 35 41 15 95 67 112 109 30
71 8 180 -47 230 -13 12 -41 29 -62 38 l-37 15 0 120 c0 66 4 120 9 120 20 0
71 -72 71 -100 0 -36 34 -64 62 -49 25 13 24 71 -3 127 -22 44 -88 102 -118
102 -9 0 -21 10 -26 23 -14 31 -64 37 -72 8z m67 -56 c10 -13 10 -19 -5 -35
-22 -24 -33 -25 -57 -3 -17 15 -17 17 -2 35 21 22 47 23 64 3z m-70 -170 c0
-63 -4 -115 -8 -115 -14 0 -60 54 -71 82 -6 16 -8 42 -4 58 6 32 53 90 72 90
7 0 11 -38 11 -115z m59 -146 c22 -30 22 -31 5 -50 -18 -20 -19 -20 -45 13
-25 30 -26 34 -12 51 22 23 26 22 52 -14z m51 -82 c30 -23 50 -62 50 -97 0
-40 -29 -93 -59 -110 -21 -11 -21 -9 -21 105 0 63 3 115 8 115 4 0 14 -6 22
-13z m-48 -224 c25 -22 23 -37 -7 -53 -22 -12 -27 -11 -45 5 l-20 18 22 24
c26 27 26 28 50 6z"/>
<path d="M1300 2391 c-13 -25 -13 -27 6 -45 13 -14 47 -16 219 -16 194 0 205
1 215 20 8 14 8 26 0 40 -10 19 -21 20 -220 20 -197 0 -210 -1 -220 -19z"/>
<path d="M1313 2198 c-22 -29 -23 -38 -3 -58 19 -19 32 -20 233 -20 195 0 215
2 230 18 21 23 21 36 1 56 -13 14 -49 16 -233 16 -163 0 -221 -3 -228 -12z"/>
<path d="M1300 1980 c-8 -14 -8 -26 0 -40 11 -20 19 -20 342 -18 302 3 332 4
342 21 8 12 8 22 0 35 -10 16 -40 17 -342 20 -323 2 -331 2 -342 -18z"/>
<path d="M1310 1780 c-22 -22 -18 -45 11 -60 25 -14 624 -13 650 0 11 6 19 21
19 35 0 14 -8 29 -19 35 -12 6 -135 10 -330 10 -296 0 -312 -1 -331 -20z"/>
</g>
</svg>
